<svg width="16" height="15" viewBox="0 0 16 15" fill="none" xmlns="http://www.w3.org/2000/svg">
<path d="M12.5274 11.4333C12.494 11.7 12.494 12 12.4606 12.2667C12.4606 12.4 12.4606 12.5667 12.4606 12.7667C12.0262 12.7667 11.6253 12.7667 11.1909 12.7667C11.1909 13.2 11.1909 13.6 11.1909 14.0333C9.05247 14.0333 6.94746 14.0333 4.80903 14.0333C4.80903 13.6333 4.80903 13.2333 4.80903 12.8C4.44149 12.8 4.10736 12.8 3.80665 12.8C3.60617 12.8 3.53935 12.7333 3.53935 12.5333C3.53935 12.3 3.53935 12.0333 3.53935 11.8C3.53935 11.6 3.47252 11.5333 3.27204 11.5333C3.03815 11.5333 2.80426 11.5333 2.53696 11.5333C2.30307 11.5667 2.23624 11.4667 2.23624 11.2333C2.23624 11.0667 2.23624 10.8667 2.23624 10.7C2.23624 10.2333 2.26966 10.2667 1.80187 10.2667C1.56798 10.2667 1.33409 10.2667 1.06679 10.2667C1.03338 10.2667 1.03338 10.2667 0.966553 10.2333C0.966553 8.13333 0.966553 6.03333 0.966553 3.9C1.26727 3.9 1.6014 3.86667 1.90211 3.9C2.16942 3.93333 2.23624 3.8 2.23624 3.56667C2.20283 3.26667 2.23624 2.96667 2.23624 2.63333C2.57037 2.63333 2.9045 2.63333 3.20522 2.63333C3.43911 2.63333 3.50593 2.56667 3.50593 2.33333C3.47252 2.03333 3.50593 1.73333 3.50593 1.36667C3.9403 1.36667 4.34125 1.36667 4.77562 1.36667C4.77562 1 4.77562 0.666667 4.77562 0.333333C4.77562 0.166667 4.80904 0.1 5.00951 0.1C7.01429 0 9.01906 0 11.0238 0C11.0572 0 11.0907 0 11.1909 0.0333333C11.1909 0.433333 11.1909 0.833333 11.1909 1.26667C11.4582 1.26667 11.6921 1.26667 11.926 1.26667C12.494 1.26667 12.494 1.26667 12.494 1.83333C12.494 2.06667 12.494 2.26667 12.494 2.53333C12.9284 2.53333 13.3293 2.53333 13.7303 2.53333C13.7637 3 13.7637 3.43333 13.7971 3.86667C13.3961 3.86667 13.0286 3.83333 12.6277 3.83333C12.5608 3.83333 12.494 3.93333 12.494 4C12.494 4.3 12.494 4.63333 12.494 4.93333C12.494 5 12.5608 5.1 12.6277 5.1C12.9952 5.1 13.3627 5.1 13.7303 5.1C13.7637 4.66667 13.7637 4.26667 13.7971 3.86667C14.1981 3.86667 14.599 3.86667 15.0334 3.86667C15.0334 3.96667 15.0334 4.06667 15.0334 4.16667C15.0334 6.06667 15.0334 7.96667 15.0334 9.86667C15.0334 10.1333 14.9666 10.2333 14.6992 10.2C14.3985 10.1667 14.0978 10.2 13.7637 10.2C13.7637 10.5333 13.7637 10.8667 13.7637 11.2C13.7637 11.4 13.6969 11.5 13.4964 11.4667C13.1623 11.4333 12.8281 11.4333 12.5274 11.4333C12.494 11.3333 12.4606 11.2333 12.4606 11.1333C12.4606 10.8333 12.4606 10.5333 12.4606 10.2C12.093 10.2 11.7589 10.2 11.4248 10.2C11.2243 10.2 11.1575 10.1333 11.1575 9.93333C11.1575 9.7 11.1575 9.43333 11.1575 9.2C11.1575 8.96667 11.0907 8.9 10.8568 8.9C10.5561 8.9 10.2219 8.9 9.88779 8.9C9.88779 8.13333 9.88779 7.36667 9.88779 6.63333C9.88779 6.4 9.98803 6.33333 10.1885 6.33333C10.4892 6.33333 10.8234 6.33333 11.1575 6.33333C11.1575 5.93333 11.1575 5.6 11.1575 5.26667C11.1575 5.1 11.0907 5.06667 10.9236 5.06667C10.6563 5.06667 10.3556 5.06667 10.0883 5.06667C9.92121 5.06667 9.85438 5 9.88779 4.86667C9.88779 4.6 9.88779 4.33333 9.88779 4.06667C9.88779 3.86667 9.82097 3.8 9.62049 3.8C9.28636 3.8 8.95223 3.8 8.6181 3.8C8.6181 3.36667 8.6181 2.96667 8.6181 2.5C9.05247 2.5 9.45343 2.5 9.85438 2.5C9.85438 2.06667 9.85438 1.66667 9.85438 1.26667C9.01906 1.26667 8.18374 1.26667 7.34841 1.26667C7.34841 1.7 7.34841 2.1 7.34841 2.53333C6.91405 2.53333 6.51309 2.53333 6.07872 2.53333C6.07872 3.83333 6.07872 5.06667 6.07872 6.36667C6.51309 6.36667 6.91405 6.36667 7.315 6.36667C7.315 6.8 7.315 7.2 7.315 7.6C6.47968 7.6 5.64436 7.6 4.77562 7.6C4.77562 7.16667 4.77562 6.76667 4.77562 6.36667C3.90689 6.36667 3.07156 6.36667 2.23624 6.36667C2.23624 7.2 2.23624 8.03333 2.23624 8.86667C2.36989 8.86667 2.47013 8.86667 2.57037 8.86667C3.20522 8.86667 3.84006 8.86667 4.47491 8.86667C4.7088 8.86667 4.80904 8.93333 4.77562 9.16667C4.74221 9.4 4.77562 9.66667 4.77562 9.9C4.77562 10.0667 4.84245 10.1333 5.00951 10.1333C5.27682 10.1333 5.54412 10.1333 5.81142 10.1333C5.97849 10.1333 6.07872 10.2 6.04531 10.3667C6.04531 10.6667 6.04531 11 6.04531 11.3C6.04531 11.7333 6.04531 12.2 6.04531 12.6667C7.74937 12.6667 9.45343 12.6667 11.1575 12.6667C11.1575 12.3333 11.1575 12 11.1575 11.7C11.1575 11.5 11.2243 11.4333 11.4248 11.4333C11.8257 11.4667 12.1599 11.4333 12.5274 11.4333Z" fill="white"/>
</svg>
