<svg width="21" height="21" viewBox="0 0 21 21" fill="none" xmlns="http://www.w3.org/2000/svg">
<g filter="url(#filter0_d_287_20)">
<path d="M10.1816 5.49979H7.50017V8.16986H10.1816V5.49979Z" fill="white"/>
<path d="M15.5346 5.49979H12.8531V8.16986H15.5346V5.49979Z" fill="white"/>
<path d="M12.8631 8.16982L10.1816 8.16986L10.1816 10.8399H12.8631V8.16982Z" fill="white"/>
<path d="M10.1816 10.8298H7.50017V13.4998H10.1816V10.8298Z" fill="white"/>
<path d="M15.5346 10.8298H12.8531V13.4998H15.5346V10.8298Z" fill="white"/>
<path d="M7.50017 2.82973H4.81869V5.49979H7.50017V2.82973Z" fill="white"/>
<path d="M7.50017 13.4998H4.81869V16.1699H7.50017V13.4998Z" fill="white"/>
<path d="M4.81869 0.159668H2.13721V2.82973H4.81869V0.159668Z" fill="white"/>
<path d="M4.81869 16.1699H2.13721V18.84H4.81869V16.1699Z" fill="white"/>
<path d="M18.2161 2.82973H15.5346V5.49979H18.2161V2.82973Z" fill="white"/>
<path d="M20.8975 0.159912H18.2161V2.82973L20.8975 2.82997V0.159912Z" fill="white"/>
<path d="M18.2161 13.4998H15.5346V16.1699H18.2161V13.4998Z" fill="white"/>
<path d="M20.8975 16.1699H18.2161V18.84H20.8975V16.1699Z" fill="white"/>
</g>
<defs>
<filter id="filter0_d_287_20" x="0.137207" y="0.159668" width="20.7603" height="20.6802" filterUnits="userSpaceOnUse" color-interpolation-filters="sRGB">
<feFlood flood-opacity="0" result="BackgroundImageFix"/>
<feColorMatrix in="SourceAlpha" type="matrix" values="0 0 0 0 0 0 0 0 0 0 0 0 0 0 0 0 0 0 127 0" result="hardAlpha"/>
<feOffset dx="-2" dy="2"/>
<feComposite in2="hardAlpha" operator="out"/>
<feColorMatrix type="matrix" values="0 0 0 0 0 0 0 0 0 0 0 0 0 0 0 0 0 0 1 0"/>
<feBlend mode="normal" in2="BackgroundImageFix" result="effect1_dropShadow_287_20"/>
<feBlend mode="normal" in="SourceGraphic" in2="effect1_dropShadow_287_20" result="shape"/>
</filter>
</defs>
</svg>
