<svg width="39" height="27" viewBox="0 0 39 27" fill="none" xmlns="http://www.w3.org/2000/svg">
<g filter="url(#filter0_d_325_7)">
<path d="M15.6 4.89999C15.6 4.89999 19.7 4.59999 22.6 0.799988H36.2C36.2 0.799988 34.3 3.29999 34.3 5.59999H22.5C22.5 5.59999 19.3 12.4 17.9 15.4C16.5 18.4 9.2 23.5 3.8 24.3C3.8 24.3 8.6 20.3 11.2 14.1H0.5C0.5 14.1 5.3 13 8.4 8.79999H13.7L15.6 4.89999Z" fill="url(#paint0_linear_325_7)"/>
<path d="M26.6 6.19999L23.7 6.99999L19.4 17.2L23.2 14.2H28.1C29 10.6 35.6 8.69999 35.6 8.69999H25.5L26.6 6.19999Z" fill="url(#paint1_linear_325_7)"/>
</g>
<defs>
<filter id="filter0_d_325_7" x="0.5" y="0.799988" width="37.7" height="25.5" filterUnits="userSpaceOnUse" color-interpolation-filters="sRGB">
<feFlood flood-opacity="0" result="BackgroundImageFix"/>
<feColorMatrix in="SourceAlpha" type="matrix" values="0 0 0 0 0 0 0 0 0 0 0 0 0 0 0 0 0 0 127 0" result="hardAlpha"/>
<feOffset dx="2" dy="2"/>
<feComposite in2="hardAlpha" operator="out"/>
<feColorMatrix type="matrix" values="0 0 0 0 0 0 0 0 0 0 0 0 0 0 0 0 0 0 1 0"/>
<feBlend mode="normal" in2="BackgroundImageFix" result="effect1_dropShadow_325_7"/>
<feBlend mode="normal" in="SourceGraphic" in2="effect1_dropShadow_325_7" result="shape"/>
</filter>
<linearGradient id="paint0_linear_325_7" x1="0.5" y1="12.55" x2="36.2" y2="12.55" gradientUnits="userSpaceOnUse">
<stop stop-color="#FFFF27"/>
<stop offset="1" stop-color="#FF0E02"/>
</linearGradient>
<linearGradient id="paint1_linear_325_7" x1="0.5" y1="12.55" x2="36.2" y2="12.55" gradientUnits="userSpaceOnUse">
<stop stop-color="#FFFF27"/>
<stop offset="1" stop-color="#FF0E02"/>
</linearGradient>
</defs>
</svg>
